<svg width="64" height="64" viewBox="0 0 64 64" fill="none" xmlns="http://www.w3.org/2000/svg">
<path d="M31.5 2C48.897 2.00001 63 15.4973 63 32.1469C63 37.67 61.4481 42.8461 58.7389 47.2977C58.0511 45.5574 57.5824 43.7411 57.0892 41.9389C56.0947 38.2418 54.7331 34.129 52.6745 30.4863C50.7478 27.0771 48.1786 24.0234 44.6738 22.1312C45.1268 20.6663 45.2239 18.7197 44.5634 17.1855C43.8094 15.435 42.1679 14.3722 40.2787 14.5237C40.2631 13.7903 40.214 13.0087 40.0739 12.2494C39.9633 11.6501 39.7921 11.0403 39.5243 10.4589C39.5233 10.4565 39.1024 9.44203 38.1587 8.62634C37.0786 7.69284 35.1881 7.53831 33.9022 8.11557C32.702 8.65621 31.4485 9.66909 30.6703 10.9374C29.5845 10.0144 27.9666 9.41652 26.5292 9.65468C25.6333 9.80442 24.8402 10.2895 24.2718 10.9926C23.2763 12.5845 23.0234 14.5138 23.1578 16.358C23.2633 17.8062 23.6171 19.2867 24.1578 20.63C23.3135 20.9571 22.3367 21.581 20.7703 22.7046L20.7674 22.7066L20.7646 22.7087C16.0231 26.1602 13.4431 30.9223 11.7202 35.9976C10.8598 38.5324 10.2071 41.1638 9.60905 43.7628C9.00721 46.3781 8.46552 48.9371 7.81589 51.4062C7.8003 51.4655 7.77596 51.5363 7.73093 51.6675C7.71202 51.7225 7.68964 51.7879 7.6668 51.8597C2.88981 46.5744 0 39.6837 0 32.1469C1.25052e-05 15.4973 14.1031 2 31.5 2Z" fill="#B9D3DB"/>
<path d="M34.3714 20.9381C36.2433 20.2558 38.6716 20.8048 40.4745 21.448C41.5039 21.7924 42.4868 22.2704 43.4949 22.6721C50.7673 26.1265 54.1379 34.8766 56.1096 42.2079C56.6247 44.0834 57.1359 46.051 57.8686 47.8571C57.9847 48.156 58.0005 48.2522 57.9922 48.3782C57.9899 48.412 57.9797 48.4555 57.9633 48.5057C52.3519 56.803 42.596 62.2939 31.5 62.2939C22.4458 62.2939 14.2839 58.6379 8.53793 52.7844C8.49974 52.4183 8.71052 51.9985 8.79835 51.6646C11.4182 41.7071 12.3474 30.0924 21.3624 23.5301C23.8221 21.7657 24.6147 21.4068 25.5991 21.3378C25.6986 21.5288 25.8022 21.7149 25.9099 21.8951C26.4531 22.6375 26.9602 23.4693 27.8352 23.8568C28.2834 23.974 28.8497 24.0129 29.2708 23.8092C30.8753 22.7239 32.5527 21.6274 34.3714 20.9381Z" fill="#F4F1E7"/>
<path d="M30.9441 39.8489C30.5996 41.0998 29.5 41.9129 28.459 42.5722C27.3759 42.9957 26.1406 43.6674 24.9699 43.2804C24.4021 42.9109 22.4744 42.5692 23.3333 41.7014C24.3124 41.474 25.2797 41.2012 26.2568 40.9454C27.7908 40.6336 29.2965 40.1992 30.8252 39.871L30.9441 39.8489Z" fill="#D98942"/>
<path d="M25.092 35.285C26.8474 35.657 28.5148 36.5026 29.7504 37.7551C30.3404 38.369 30.8107 39.0184 30.9436 39.849L30.8252 39.8711C29.2965 40.1993 27.7908 40.6337 26.2568 40.9454C25.2797 41.2012 24.3124 41.474 23.3333 41.7015C22.9306 42.1083 23.1404 42.3995 23.5354 42.6321C22.3504 42.1608 21.3853 41.1448 21.1408 39.9355C20.9551 39.0531 21.3808 38.1267 22.1241 37.5896C23.0638 36.7699 23.8903 35.773 25.092 35.285Z" fill="#EBAC53"/>
<path d="M28.6594 42.4438C28.6064 42.5574 28.5681 42.6766 28.5489 42.8029C29.0618 44.8369 31.0155 46.1719 31.6669 48.1904C32.4785 49.7989 32.0351 52.1863 30.1296 52.7472C28.7913 53.2456 27.0342 52.8724 26.2999 51.5661C24.6405 50.6447 23.558 53.8602 21.6754 52.5765C19.605 51.7075 19.8838 48.9849 20.8726 47.3908C21.4998 45.6861 23.4821 44.4673 23.5353 42.632C23.9828 42.8956 24.6682 43.0841 24.9699 43.2804C26.1406 43.6674 27.3759 42.9957 28.459 42.5722C28.5255 42.5301 28.5924 42.4872 28.6594 42.4438ZM34.3195 9.04182C35.4405 8.63095 36.6043 8.74006 37.5545 9.44304H37.5542C39.313 11.0185 39.2797 13.7046 39.2668 15.8582C39.3378 15.8233 39.4087 15.7885 39.4818 15.7526C40.1181 15.4538 40.9956 15.4793 41.6723 15.6549C42.6006 15.9899 43.2234 16.7141 43.6303 17.5872C44.1884 18.8835 44.1015 20.6462 43.6604 21.9648C43.5819 22.2024 43.5299 22.4257 43.4949 22.672C42.4868 22.2703 41.5039 21.7924 40.4746 21.448C38.6716 20.8047 36.2433 20.2557 34.3713 20.9381C32.5526 21.6274 30.8754 22.7239 29.2709 23.8092C28.8497 24.0129 28.2833 23.9739 27.8351 23.8568C26.9601 23.4693 26.4531 22.6374 25.9099 21.8951C24.1128 18.8855 23.4173 14.2719 25.1003 11.5837C25.493 11.098 26.0647 10.7623 26.6967 10.6567C27.9179 10.5426 28.9444 10.8783 29.8952 11.6132C30.2011 11.8661 30.4899 12.1324 30.7685 12.4128C30.8817 12.5309 30.8817 12.5309 31.0372 12.5963C31.4587 11.0586 32.9012 9.6807 34.3195 9.04182Z" fill="#D04C42"/>
<path d="M31.8419 51.0927C31.9299 51.0192 32.0021 51.0652 32.0237 51.3862C31.9444 52.0527 31.7639 52.7454 31.3592 53.2942C30.3825 54.5911 28.3708 55.0113 27.0119 54.072C26.5027 53.8209 26.1559 53.45 25.7689 53.0674C25.0486 53.4128 24.5135 54.1105 23.6876 54.2383C22.3559 54.5752 20.9253 53.5937 20.6849 52.2561C20.6418 51.9729 20.6971 51.9229 20.8048 51.9761C21.0306 52.2212 21.3179 52.4265 21.6753 52.5765C22.5498 53.1728 23.2517 52.7982 23.9189 52.3185C24.212 52.1458 24.4868 51.9277 24.7577 51.7189C25.2412 51.4169 25.7374 51.2538 26.2999 51.5661C27.0342 52.8724 28.7914 53.2456 30.1296 52.7472C30.9966 52.492 31.5607 51.8587 31.8419 51.0927Z" fill="#E4DACD"/>
<path d="M36.9004 32.8731C38.8671 32.7554 39.8566 35.2688 39.0712 36.8472C38.5072 38.499 35.9144 38.9623 35.1251 37.2584C34.2155 35.7572 34.8163 33.2245 36.7017 32.8735C36.7679 32.8735 36.8342 32.8735 36.9004 32.8728V32.8731ZM17.6501 32.9117C18.1335 32.6303 18.7507 32.6462 19.2445 32.8929C19.9392 33.3287 20.3053 34.149 20.3402 34.9491C20.3753 35.7033 20.1922 36.4861 19.7517 37.1064C19.3267 37.6763 18.5714 38.0754 17.8561 37.8713C17.1941 37.6879 16.6963 37.1144 16.515 36.464C16.3903 36.0688 16.4107 35.6507 16.3966 35.2423C16.4128 34.3316 16.825 33.366 17.6501 32.9117ZM36.5485 33.6177C36.3244 33.561 36.0802 33.6408 35.9143 33.7969C35.3921 34.2228 35.9039 35.1769 36.5436 35.0221C37.2411 34.9059 37.2094 33.7631 36.5485 33.6177ZM18.2016 33.5452C17.9556 33.5148 17.6841 33.4712 17.4548 33.5937C17.1934 33.7311 17.1477 34.0715 17.2134 34.3329C17.2669 34.6898 17.6454 34.9316 17.9928 34.8722C18.2963 34.8385 18.4969 34.547 18.5266 34.2607C18.5744 33.9901 18.4813 33.6499 18.2016 33.5452Z" fill="#373733"/>
</svg>
