<svg width="64" height="64" viewBox="0 0 64 64" fill="none" xmlns="http://www.w3.org/2000/svg">
<path d="M23.0706 2.57789C32.9764 -0.29529 43.6794 1.88035 51.7975 8.23147C55.9986 11.5182 59.307 15.9075 61.3112 20.8511C64.7559 29.3477 64.1172 39.3611 59.519 47.3153C58.0502 49.856 56.2632 52.1437 54.1383 54.1675C47.909 60.1005 39.2936 63.037 30.7551 62.6325C20.129 62.1291 11.0783 57.0702 4.87962 47.7115C0.749314 41.4757 -0.25949 33.6793 1.01904 26.4081C1.84471 21.7126 3.92738 17.2262 6.91788 13.5172C9.42551 10.4071 12.3884 7.8192 15.8124 5.76308C18.0949 4.39247 20.5171 3.31852 23.0706 2.57789ZM39.5855 21.025C37.6449 20.5433 35.7492 20.6622 33.9626 21.5324C32.4673 22.2607 31.0074 23.0789 29.5999 23.9653C28.0688 24.9295 27.1329 24.8243 25.8728 23.8291C25.325 23.3965 24.876 22.8266 24.4306 22.2798C24.003 21.7549 24.0303 21.732 23.4201 21.9728C21.1799 22.8573 19.171 24.5302 17.5793 26.3067C11.8403 32.7123 11.2536 41.8348 9.75594 49.9256C9.66032 50.4422 9.82615 50.7654 10.1424 51.0945C11.6841 52.6989 13.3222 54.1956 15.1774 55.4309C18.9637 57.9521 23.0908 59.588 27.6095 60.251C29.9208 60.5901 32.2226 60.688 34.5492 60.5054C37.1302 60.3028 39.6459 59.7808 42.0764 58.9221C43.5135 58.4145 44.8999 57.7465 46.2695 57.0702C47.3373 56.5429 48.386 55.9531 49.3689 55.2824C51.2875 53.9731 53.0373 52.4542 54.6428 50.6815C55.3863 49.7119 57.5847 47.8876 57.2989 46.5337C57.0533 45.37 56.6207 44.2031 56.2397 43.0783C55.0606 39.5976 53.9794 36.049 52.4548 32.6984C51.5884 30.7943 50.4758 29.0223 49.2432 27.3373C47.9807 25.6114 46.3934 24.2316 44.6026 23.0807C43.0581 22.088 41.3619 21.4658 39.5855 21.025ZM25.3293 34.7212C25.9966 34.1956 26.774 34.2363 27.4637 34.5962C28.1863 34.9733 28.8568 35.4689 29.498 35.9783C30.2663 36.5887 30.9943 37.2526 31.7098 37.9252C32.0484 38.2434 32.3362 38.6219 32.612 38.9988C32.8343 39.3024 32.8036 39.5881 32.5418 39.9147C31.8727 40.7495 31.1038 41.4491 30.1597 41.9561C29.8487 42.1232 29.8797 42.3315 30.0551 42.6148C30.8689 43.9288 31.676 45.2475 32.4543 46.5827C33.0437 47.5938 33.5045 48.6758 33.5383 49.8579C33.5672 50.8672 33.199 51.7777 32.376 52.4165C31.1013 53.4058 29.6995 53.5381 28.2892 52.7745C27.4561 52.3234 26.8791 51.5687 26.544 50.67C25.9693 49.129 25.783 47.5438 26.067 45.9134C26.1875 45.2222 26.301 44.5298 26.3182 43.7928C26.1281 44.1978 25.8897 44.5877 25.7561 45.0106C25.186 46.8156 25.258 48.5931 26.0276 50.3405C26.1292 50.5715 26.0667 50.8748 26.073 51.1782C25.5757 51.7872 25.0217 52.2662 24.3426 52.6312C22.421 53.6638 20.1233 52.2685 19.9138 50.244C19.814 49.2796 20.0584 48.4289 20.4277 47.5925C21.0747 46.1275 22.0312 44.862 23.0814 43.6649C23.3344 43.3766 23.5938 43.0934 23.8612 42.8185C24.1382 42.5338 24.5325 42.4139 24.8372 42.6169C25.6296 43.1449 26.3353 42.8395 27.0159 42.462C28.3114 41.7435 29.5817 40.9792 30.8565 40.2238C31.0692 40.0977 31.2515 39.9202 31.4479 39.7664C31.4135 39.7247 31.3791 39.6829 31.3447 39.6412C30.3623 39.9163 29.3792 40.189 28.3976 40.4671C26.7982 40.9202 25.2031 41.3899 23.5967 41.8171C23.3744 41.8762 23.0237 41.8142 22.8605 41.6666C22.3743 41.2273 21.9212 40.7418 21.5146 40.2274C21.1955 39.8237 21.2003 39.3352 21.509 38.9108C22.1464 38.0345 22.7579 37.1312 23.4759 36.3244C24.0146 35.7191 24.6872 35.2268 25.3293 34.7212ZM32.4205 3.02116C27.0221 2.89087 21.3212 4.34266 16.7252 7.15884C12.9665 9.46194 9.77932 12.3646 7.23256 15.9872C5.36933 18.6375 4.07341 21.5269 3.22765 24.6318C2.76904 26.3154 2.47729 28.031 2.34903 29.7767C2.16022 32.3463 2.27517 34.8963 2.77751 37.4226C3.6006 41.5621 5.49416 45.3634 7.9491 48.7722C9.07571 43.061 9.8957 37.1112 12.2838 31.7585C13.8361 28.2791 16.0491 24.8487 19.2559 22.678C20.3925 21.9086 21.619 21.2724 22.8041 20.5745C23.0243 20.4448 23.176 20.3318 23.02 20.0024C21.9658 17.7762 21.7546 14.8763 22.3592 12.526C23.1032 9.63438 26.3313 8.19075 28.8862 9.86509C29.4852 10.2576 30.04 10.7173 30.6333 11.1597C31.4294 9.87857 32.1844 8.6693 33.3844 7.71164C34.8942 6.50683 37.0461 6.31785 38.6153 7.57375C39.6797 8.42562 40.2621 9.57482 40.5833 10.853C40.8595 11.952 41.0292 13.0778 41.2598 14.2623C41.9779 14.2623 42.7415 14.1782 43.4484 14.3062C45.1455 14.6136 45.8291 15.9148 46.2924 17.3694C46.7513 18.8102 46.7283 20.2916 46.45 21.7608C46.3681 22.193 46.5316 22.3971 46.8283 22.6234C47.3686 23.0357 47.9115 23.4496 48.4142 23.9057C49.757 25.1242 50.9 26.5232 51.8988 28.0284C53.1778 29.956 54.2773 31.9948 55.0869 34.1607C56.1736 37.068 57.1564 40.0143 58.1794 42.9453C58.3618 43.4676 58.5232 43.9972 58.7096 44.5706C58.8165 44.4412 58.9039 44.3724 58.9426 44.2827C59.3128 43.4244 59.7026 42.5731 60.034 41.6998C62.501 35.1996 62.1596 28.1813 59.7224 21.7311C58.0878 17.4048 55.2523 13.5308 51.7837 10.4918C46.43 5.80093 39.5296 3.19274 32.4205 3.02116ZM37.3264 31.7965C38.3556 31.269 39.6719 31.6363 40.3037 32.631C41.2754 34.1609 41.1214 36.2423 40.0244 37.4252C39.0569 38.4685 37.3491 38.4727 36.4182 37.3918C35.8264 36.7046 35.5879 35.9105 35.5487 34.9914C35.6273 33.6097 36.0474 32.4519 37.3264 31.7965ZM16.939 32.5007C17.9761 31.0617 19.9055 31.3699 20.6029 32.9587C21.0925 34.0741 21.1355 35.2004 20.6529 36.3472C20.1151 37.625 18.6133 38.146 17.4461 37.44C16.6955 36.9859 16.4106 36.2758 16.2892 35.4626C16.2697 35.3318 16.2581 35.1998 16.2426 35.0335C16.202 34.09 16.3931 33.2583 16.939 32.5007ZM38.0236 32.7984C37.8295 32.7108 37.4627 32.7931 37.2827 32.9383C37.0283 33.1434 36.8761 33.4791 37.0301 33.8423C37.2 34.2427 37.5413 34.2769 37.9775 34.2113C38.3242 34.0721 38.5096 33.7844 38.446 33.4465C38.4002 33.2035 38.2263 32.8898 38.0236 32.7984ZM18.7103 32.7533C18.3863 32.5766 18.0375 32.5568 17.7723 32.9088C17.4747 33.3037 17.6073 33.77 18.1643 34.0654C18.5972 34.1684 18.853 33.9548 18.9714 33.5709C19.0694 33.2534 19.0204 32.9225 18.7103 32.7533Z" fill="black"/>
</svg>
